<svg xmlns="http://www.w3.org/2000/svg" width="1200" height="700" viewBox="0 0 1200 700">
  <rect width="1200" height="700" fill="#ffffff"/>
  <rect x="40" y="40" width="1120" height="620" fill="#ffffff" stroke="#1E40FF" stroke-width="4"/>

  <!-- лёгкая сетка как в макете -->
  <g stroke="#1E40FF" stroke-opacity="0.10" stroke-width="2">
    <path d="M140 120 H1060"/>
    <path d="M140 170 H1060"/>
    <path d="M140 220 H1060"/>
    <path d="M140 270 H1060"/>
    <path d="M140 320 H1060"/>
    <path d="M140 370 H1060"/>
    <path d="M140 420 H1060"/>
    <path d="M140 470 H1060"/>
    <path d="M140 520 H1060"/>
  </g>

  <!-- простая иллюстрация "чашка + часы" -->
  <g fill="none" stroke="#1E40FF" stroke-opacity="0.35" stroke-width="8" stroke-linecap="round" stroke-linejoin="round">
    <!-- чашка -->
    <path d="M340 250 h220"/>
    <path d="M360 250 v90 c0 55 40 90 90 90 h50 c50 0 90-35 90-90 v-90"/>
    <path d="M560 280 h35 c40 0 60 22 60 50s-20 50-60 50h-35"/>
    <path d="M380 450 h220"/>

    <!-- часы -->
    <circle cx="790" cy="320" r="110"/>
    <path d="M790 320 v-55"/>
    <path d="M790 320 h60"/>
    <circle cx="790" cy="320" r="6" fill="#1E40FF" stroke="none"/>
  </g>
</svg>
